<svg width="435" height="474" viewBox="0 0 435 474" fill="none" xmlns="http://www.w3.org/2000/svg">
<path fill-rule="evenodd" clip-rule="evenodd" d="M189.608 20.586C248.523 40.0488 278.347 100.901 320.63 146.31C353.262 181.354 389.653 211.494 408.405 255.554C428.623 303.059 442.272 354.67 430.725 404.99C418.54 458.089 386.877 505.498 343.489 538.445C299.489 571.857 244.856 587.848 189.608 588.085C134.184 588.323 82.495 567.943 34.7661 539.768C-17.5282 508.897 -76.0664 476.806 -96.0412 419.459C-116.142 361.749 -79.8576 302.799 -68.7011 242.716C-55.2907 170.495 -79.8658 80.298 -24.171 32.4039C31.2986 -15.2966 120.142 -2.36236 189.608 20.586Z" fill="#E9D8FD"/>
</svg>
