<svg width="519" height="686" viewBox="0 0 519 686" fill="none" xmlns="http://www.w3.org/2000/svg">
<path fill-rule="evenodd" clip-rule="evenodd" d="M391.737 0.728711C469.594 -7.26462 536.204 52.1127 598.212 99.8479C658.545 146.294 715.812 198.67 741.803 270.219C768.37 343.358 781.353 430.329 742.818 497.937C705.84 562.812 617.512 568.708 551.622 603.882C497.532 632.757 452.842 680.206 391.737 685.356C327.623 690.759 268.604 661.213 210.985 632.59C141.582 598.113 59.1174 572.55 24.8176 503.082C-10.9833 430.573 -7.06934 338.253 30.2315 266.503C65.4428 198.774 152.424 184.525 213.939 139.3C275.998 93.6751 315.103 8.59659 391.737 0.728711Z" fill="#E9D8FD"/>
</svg>
