<svg width="537" height="589" viewBox="0 0 537 589" fill="none" xmlns="http://www.w3.org/2000/svg">
<path fill-rule="evenodd" clip-rule="evenodd" d="M291.608 20.586C350.523 40.0488 380.347 100.901 422.63 146.31C455.262 181.354 491.653 211.494 510.405 255.554C530.623 303.059 544.272 354.67 532.725 404.99C520.54 458.089 488.877 505.498 445.489 538.445C401.489 571.857 346.856 587.848 291.608 588.085C236.184 588.323 184.495 567.943 136.766 539.768C84.4718 508.897 25.9336 476.806 5.95878 419.459C-14.1424 361.749 22.1424 302.799 33.2989 242.716C46.7093 170.495 22.1342 80.298 77.829 32.4039C133.299 -15.2966 222.142 -2.36236 291.608 20.586Z" fill="#E9D8FD"/>
</svg>
