<svg width="118" height="70" viewBox="0 0 118 70" fill="none" xmlns="http://www.w3.org/2000/svg">
<path fill-rule="evenodd" clip-rule="evenodd" d="M74.8766 0.0912983C74.78 0.145268 74.3811 0.221227 73.99 0.260146C73.599 0.298948 72.8091 0.495428 72.2346 0.696611C68.4735 2.014 65.2998 4.49497 63.5152 7.51295C63.2482 7.9647 62.9843 8.33425 62.9289 8.33425C62.8736 8.33425 62.6103 7.9353 62.344 7.44769C62.0776 6.96019 61.6944 6.35347 61.4924 6.09973C61.2904 5.84587 60.9145 5.36402 60.6571 5.02903C60.161 4.38339 58.4317 3.01027 57.5635 2.57251C55.8545 1.71063 54.0112 1.38388 52.0965 1.60328C50.8781 1.74285 50.1171 1.90994 49.5389 2.16485C48.2662 2.72607 47.5102 3.12009 46.9831 3.49682C45.5369 4.53037 45.1637 4.82726 45.0003 5.07383C44.9049 5.21798 44.4914 5.73981 44.0815 6.23354C42.9308 7.61936 41.5487 10.4478 41.159 12.2145C40.644 14.549 40.6695 17.3658 41.2276 19.7985C41.3314 20.2512 41.4936 21.0139 41.5881 21.4934C41.6825 21.973 41.8069 22.4228 41.8645 22.4929C41.9222 22.5631 42.0039 22.8321 42.0461 23.0908C42.16 23.7879 42.4673 24.4428 42.681 24.4438C42.7839 24.4441 43.0261 24.5496 43.2192 24.6781C43.7057 25.0018 43.9437 24.972 44.1554 24.5605C44.2739 24.3304 44.4274 24.2072 44.5973 24.206C44.9681 24.2034 45.1037 24.0812 45.1821 23.6787C45.22 23.4847 45.2838 23.2402 45.3242 23.1353C45.3647 23.0305 45.3169 22.8635 45.2181 22.7642C44.8035 22.3477 44.0267 18.9408 43.8512 16.7695C43.6749 14.5865 44.1663 11.677 44.9184 10.4507C44.9779 10.3537 45.1634 10.0113 45.3305 9.68997C46.7792 6.90505 49.6871 4.77811 52.4153 4.50791C53.5886 4.39174 54.9585 4.61737 55.992 5.09711C57.808 5.94005 59.2337 7.61183 60.8639 10.8097C61.8403 12.7251 61.9538 12.89 62.4843 13.1619C63.0434 13.4485 63.1563 13.4473 63.4692 13.1519C63.6082 13.0208 63.8457 12.8895 63.9972 12.8602C64.4144 12.7796 64.7807 12.2314 64.912 11.4913C65.0538 10.6928 65.4376 9.90574 66.3371 8.56942C68.2401 5.74205 71.586 3.63192 75.0995 3.04331C76.048 2.88434 78.7229 2.94407 79.7453 3.14702C81.4789 3.49106 83.9725 4.49756 85.5266 5.48043C86.2769 5.95499 87.7886 7.40606 88.4996 8.33425C89.6496 9.83589 90.3921 11.5349 90.6727 13.3074C90.8441 14.3896 90.8548 17.7517 90.6898 18.6227C90.6163 19.0107 90.5043 19.5927 90.4411 19.9161C89.9118 22.6219 89.8411 23.1356 89.9659 23.3698C90.094 23.6104 90.5071 23.7645 91.5465 23.9597C92.2472 24.0912 92.4576 23.9198 92.7717 22.9625C93.2145 21.6126 93.845 17.6186 93.8096 16.3886C93.7983 16.0006 93.799 15.5508 93.811 15.3892C93.8642 14.6709 93.5926 12.0738 93.4387 11.83C93.3476 11.6858 93.2369 11.3296 93.1925 11.0386C93.1215 10.5743 91.4972 7.20253 91.2666 7.04085C91.2205 7.00852 91.1329 6.89035 91.0722 6.77841C90.6803 6.05634 88.8448 4.21971 87.838 3.54233C87.5966 3.37983 87.3991 3.20357 87.3991 3.15054C87.3991 3.09751 87.2017 2.96276 86.9602 2.85106C86.7189 2.73948 86.1161 2.42012 85.6208 2.14146C83.8673 1.15494 81.6214 0.425701 79.4994 0.153851C78.1724 -0.0161718 75.142 -0.0572076 74.8766 0.0912983ZM33.0135 3.92223C32.7048 4.06756 32.3367 4.346 32.1957 4.5413C31.7246 5.19306 30.2247 8.56354 28.8594 12.0381C27.7815 14.7813 25.4107 18.8788 23.2469 21.7386C22.3409 22.9358 19.8267 25.6757 19.0447 26.3178C18.6945 26.6052 18.1712 27.0657 17.8815 27.3411C17.0322 28.1487 15.7911 29.1495 15.0742 29.6049C14.7078 29.8376 14.1758 30.1851 13.892 30.377C13.2558 30.8068 12.8436 31.0528 12.0884 31.4531C11.7665 31.6237 11.3716 31.8517 11.2106 31.9599C10.8847 32.179 9.41875 32.8164 7.99223 33.3594C6.79499 33.815 4.40927 34.3171 3.76805 34.2485C3.28727 34.197 2.15007 33.8195 2.05726 33.6807C2.00026 33.5955 1.79627 33.6185 1.41358 33.7533C1.10531 33.8619 0.71454 33.9229 0.545076 33.889C0.138854 33.8078 0.0585697 33.9634 0.0089477 34.9296C-0.0441853 35.9655 0.123991 36.2874 0.929412 36.6917C1.4199 36.9378 1.83419 37.0304 2.84278 37.1192C3.55083 37.1817 4.15648 37.2173 4.18866 37.1986C4.22085 37.1798 4.77383 37.1031 5.41751 37.0281C8.25638 36.6972 13.8276 34.2735 16.4276 32.2382C16.7445 31.9901 17.1354 31.7018 17.2964 31.5975C17.9865 31.1503 20.7213 28.6659 22.0391 27.2889C23.9793 25.2617 25.6877 23.2011 26.274 22.1813C26.4161 21.9338 26.6213 21.642 26.7298 21.533C27.4885 20.7708 30.1903 15.7785 31.4549 12.8024C31.661 12.3173 32.0355 11.4809 32.2871 10.9436C32.5388 10.4063 32.7447 9.94771 32.7447 9.92455C32.7447 9.78709 33.2282 8.78083 33.2728 8.82563C33.3399 8.89312 33.5408 9.97334 34.1434 13.5079C34.4024 15.0276 34.6905 16.6943 34.7834 17.2117C34.9763 18.2845 35.663 22.9407 35.746 23.7375C35.7763 24.0285 35.9012 25.0603 36.0236 26.0303C36.146 27.0004 36.3275 28.6671 36.4271 29.7341C36.5266 30.8012 36.6368 31.9436 36.672 32.2729L36.736 32.8713L34.7111 32.9493C33.5974 32.9921 32.3175 33.0791 31.867 33.1427C30.2533 33.3706 28.8181 33.6468 28.473 33.7959C28.2799 33.8794 27.9112 33.9853 27.6538 34.0314C27.3963 34.0776 26.8586 34.2672 26.4591 34.4527C26.0594 34.6384 25.6628 34.7902 25.5777 34.7902C25.4925 34.7902 24.8452 35.0889 24.1392 35.4541C20.3432 37.4175 17.4774 40.0653 15.2005 43.7133C14.5018 44.8327 13.6683 46.4638 13.6683 46.7117C13.6683 46.7475 13.5288 47.0825 13.3583 47.4562C13.0318 48.1717 12.6601 49.4307 12.2549 51.1928C11.91 52.6934 11.8213 55.508 12.0693 57.0814C12.2734 58.3762 13.132 61.3534 13.355 61.54C13.4324 61.6047 13.5625 61.8094 13.6442 61.9948C14.0243 62.8569 15.7007 64.6592 16.8826 65.4762C18.4348 66.5491 19.9244 66.9427 22.0947 66.8533C23.5538 66.7931 25.1376 66.4426 25.1376 66.1798C25.1376 66.1177 25.2397 66.0669 25.3647 66.0669C25.4897 66.0669 25.6244 66.014 25.6642 65.9493C25.704 65.8847 25.8256 65.8318 25.9346 65.8318C26.1308 65.8318 27.5805 64.9231 28.467 64.2444C29.2764 63.6246 31.8521 60.9665 32.2267 60.3642C32.3474 60.1702 32.6844 59.6886 32.9757 59.2939C33.5356 58.5353 33.7113 58.2561 34.4072 57.0195C34.8602 56.2142 36.2001 53.5232 36.4008 53.0153C36.4648 52.8537 36.5651 52.627 36.6239 52.5116C36.6826 52.3963 36.9181 51.7084 37.1471 50.9831C37.3762 50.2577 37.6615 49.3732 37.7812 49.0176C38.5811 46.641 39.4178 40.7056 39.4162 37.4189C39.4157 36.3967 39.4445 36.2151 39.6179 36.1482C39.8232 36.0691 41.306 36.2225 42.6925 36.4664C43.1109 36.54 44.5689 36.6113 45.9326 36.6247C47.8604 36.6437 48.4852 36.6879 48.7414 36.8234C48.9225 36.9193 49.207 37.0515 49.3736 37.1173L49.6763 37.2369L49.624 42.3923C49.5953 45.2278 49.53 47.5929 49.479 47.6481C49.428 47.7031 49.0089 47.5231 48.5479 47.2478C47.9729 46.9047 47.5323 46.7304 47.1454 46.6931L46.5812 46.6385L46.1081 47.6052C45.8479 48.1367 45.662 48.6424 45.695 48.7288C45.7748 48.9377 47.3373 50.1927 47.5218 50.196C47.6013 50.1974 47.7981 50.302 47.959 50.4285C48.1199 50.5551 48.3014 50.6597 48.3623 50.6611C48.4233 50.6625 48.6734 50.8032 48.9182 50.9736L49.3634 51.2836L49.3622 52.6492C49.3608 54.4032 49.1707 57.7277 48.9985 59.012C48.8614 60.0341 48.4683 61.117 48.0813 61.5388C47.962 61.6688 47.5519 62.2514 47.17 62.8334C46.788 63.4155 46.1189 64.4344 45.6832 65.0978C45.2473 65.7612 44.8432 66.3335 44.7851 66.3696C44.727 66.4057 44.5193 66.7792 44.3236 67.1998C43.9704 67.9589 43.9693 67.9672 44.1796 68.3291C44.2962 68.5296 44.5491 68.7443 44.7416 68.8062C44.9342 68.8682 45.2614 69.046 45.4689 69.2014L45.8461 69.484L46.4186 69.1925C46.8529 68.9714 47.0072 68.8202 47.0577 68.5664C47.0943 68.3823 47.3648 67.9206 47.6587 67.5403C47.9525 67.1601 48.1931 66.7852 48.1931 66.7075C48.1931 66.6297 48.2726 66.4996 48.37 66.4185C48.4673 66.3374 48.6503 66.0532 48.7767 65.7868C49.0229 65.268 50.0485 63.9366 50.2553 63.8673C50.324 63.8443 50.7323 64.5547 51.1625 65.446C52.4417 68.0958 52.5862 68.3519 52.9026 68.5311C53.1861 68.6915 53.2632 68.6723 54.1223 68.2263C55.3573 67.5854 55.3628 67.5378 54.4336 65.5138C54.2197 65.048 54.0447 64.576 54.0447 64.4649C54.0447 64.3538 53.9716 64.1794 53.8823 64.0773C53.7928 63.9751 53.5731 63.6006 53.3937 63.245C53.2144 62.8893 52.8484 62.2279 52.5806 61.7752C52.3127 61.3225 52.0664 60.8438 52.033 60.7115C51.9998 60.5791 52.0613 58.5666 52.1698 56.2392L52.3673 52.0074L53.5678 50.8358C54.2281 50.1915 54.8387 49.6242 54.9244 49.5751C55.0102 49.5261 55.4004 49.0865 55.7914 48.5981C56.5491 47.652 56.7159 47.1026 56.287 46.9659C56.1686 46.9281 56.0022 46.7667 55.9172 46.6071C55.8323 46.4476 55.6706 46.2878 55.5582 46.2519C55.4457 46.2159 55.3241 46.1093 55.2881 46.0148C55.2519 45.9202 55.0745 45.8428 54.8937 45.8428C54.6475 45.8428 54.3156 46.0706 53.5733 46.7489L52.5818 47.6551L52.5203 47.1899C52.4865 46.934 52.5007 44.8728 52.5517 42.6093C52.6029 40.3459 52.6472 38.0474 52.6503 37.5015C52.6563 36.4416 52.7263 36.2248 53.2409 35.672C53.4216 35.478 53.6368 35.2338 53.7192 35.1293C53.8017 35.0248 54.0798 34.8248 54.3373 34.6849L54.8054 34.4306L55.5715 35.1689C56.1655 35.7413 56.5073 35.9669 57.0929 36.1729C57.9728 36.4825 58.3843 36.498 59.5856 36.2671C61.1505 35.9663 62.3949 35.2265 63.7067 33.8172C65.0512 32.3728 65.932 30.6565 66.5067 28.3613C66.6552 27.7678 66.8151 27.22 66.8619 27.144C66.9552 26.9923 67.7349 26.635 67.8093 26.7099C67.8348 26.7356 67.801 27.0429 67.7342 27.3929C67.5427 28.3949 67.5852 31.6646 67.8005 32.4979C68.0523 33.4723 68.4815 34.3765 69.0339 35.0959C70.574 37.1013 73.0018 37.1727 74.2797 35.2503C74.5359 34.8646 74.7786 34.4446 74.819 34.3169C74.9263 33.9771 75.1479 34.0332 75.3298 34.4461C75.5597 34.9681 76.9002 36.0311 77.7295 36.3493C78.3892 36.6024 78.4443 36.6525 78.5408 37.0871C78.6366 37.5189 78.5596 44.063 78.4575 44.1657C78.4324 44.1908 78.003 43.9167 77.5033 43.5565C75.973 42.4534 75.3207 42.3983 74.9445 43.3402C74.821 43.6496 74.6234 44.0289 74.5056 44.1832C74.2147 44.5639 74.2353 44.7236 74.6132 45.0145C74.7903 45.1509 75.2915 45.5384 75.7269 45.8759C76.1624 46.2135 77.0402 46.8864 77.6773 47.3714L78.8358 48.2533L78.9591 49.3703C79.2324 51.8456 79.476 56.2915 79.4873 59.012L79.4994 61.8928L78.7502 63.0023C78.3383 63.6125 77.8054 64.3268 77.5663 64.5896C77.3272 64.8524 77.05 65.2262 76.9504 65.4202C76.8508 65.6142 76.6014 65.9582 76.3962 66.1845C76.1911 66.4109 75.831 66.8341 75.5961 67.1252C75.3613 67.4162 75.1034 67.6966 75.0229 67.7483C74.7323 67.9351 74.8587 68.5465 75.2862 69.022C75.5115 69.2724 75.6958 69.5295 75.6958 69.5931C75.6958 69.6567 75.8842 69.7879 76.1144 69.8846C76.4692 70.0334 76.5898 70.0365 76.9044 69.9043C77.257 69.7562 78.6216 68.3952 78.6216 68.1915C78.6216 68.1386 78.8125 67.8903 79.0459 67.6397C79.2792 67.389 79.6611 66.8928 79.8944 66.537C80.6058 65.4522 80.981 65.0083 81.181 65.0155C81.388 65.0229 81.7063 65.4791 83.0348 67.6725C83.6636 68.7108 83.9775 69.1211 84.1821 69.1727C84.5251 69.2592 86.1635 68.5239 86.2743 68.2337C86.3588 68.0126 86.189 67.3008 85.935 66.8116C85.8399 66.6284 85.7618 66.4124 85.7613 66.3315C85.761 66.2507 85.7071 66.1845 85.6417 66.1845C85.5763 66.1845 85.4314 65.9861 85.3199 65.7436C85.2082 65.5011 85.0435 65.2249 84.9536 65.13C84.8637 65.0351 84.7055 64.7706 84.602 64.5421C84.4987 64.3137 84.2825 63.9887 84.1218 63.8197C83.9611 63.6507 83.5536 63.1132 83.2163 62.625L82.6031 61.7372L82.4853 58.3464C82.4206 56.4813 82.3403 54.7173 82.307 54.4263C82.2431 53.8682 82.0743 51.5398 81.9513 49.5178L81.8779 48.313L82.2386 48.1068C82.437 47.9933 82.5996 47.8372 82.6 47.7597C82.6004 47.6822 83.3307 46.8873 84.2228 45.9932C85.1151 45.0993 85.8822 44.2501 85.9276 44.1062C85.9941 43.8956 85.8801 43.6965 85.3441 43.0868C84.9777 42.6701 84.6025 42.3001 84.5102 42.2646C84.2267 42.1552 83.399 42.6664 82.5914 43.4498C82.1678 43.8605 81.7596 44.1967 81.6844 44.1967C81.5962 44.1967 81.5456 43.9555 81.5423 43.5206C81.5395 43.1487 81.5196 41.6275 81.4979 40.1401C81.4669 38.003 81.4928 37.3686 81.6213 37.1159C81.7107 36.94 81.7702 36.7353 81.7534 36.661C81.7367 36.5866 82.0782 36.3057 82.5124 36.0366C83.552 35.3925 84.4809 34.4607 85.1435 33.3974L85.6817 32.5338L85.9416 33.2281C86.4921 34.6995 87.0207 35.4145 87.8856 35.8578C88.4235 36.1335 89.2726 36.15 89.807 35.8951C90.6621 35.4874 91.3198 34.3863 90.8674 34.1199C90.7796 34.0682 90.625 33.8671 90.524 33.6731C90.1997 33.0507 89.7509 32.6548 89.4671 32.7411C89.0301 32.874 88.9988 32.8602 88.7889 32.4385C88.3223 31.5016 87.9318 28.96 87.9281 26.8359C87.9259 25.5752 87.914 25.514 87.62 25.2398C87.452 25.083 87.2237 24.8155 87.1127 24.6453C86.4673 23.6558 83.4921 22.7722 81.0742 22.8521C79.4252 22.9065 78.263 23.305 77.0417 24.2344C75.7371 25.2272 74.9936 25.9813 74.9936 26.3118C74.9936 26.3833 74.9414 26.4419 74.8776 26.4419C74.8137 26.4419 74.6005 26.7285 74.4036 27.079C74.2068 27.4294 73.9693 27.7798 73.8759 27.8577C73.7827 27.9355 73.7062 28.1036 73.7062 28.2312C73.7062 28.3588 73.6318 28.6037 73.5409 28.7754C73.1717 29.4721 72.8685 30.2606 72.7054 30.9479C72.4081 32.1997 72.0421 33.3134 71.8678 33.4968C71.7197 33.6523 71.655 33.6199 71.3183 33.2206C70.7826 32.5855 70.5384 31.5376 70.5468 29.9105C70.5545 28.4106 70.5692 28.2822 70.9035 26.7946C71.0416 26.1802 71.2134 25.413 71.2852 25.0897C71.357 24.7663 71.4639 24.468 71.5228 24.4267C71.5815 24.3855 71.5961 24.2973 71.5553 24.2307C71.5143 24.1642 71.6194 23.7887 71.7889 23.3962C72.094 22.6893 72.0948 22.6796 71.8775 22.3575C71.7569 22.1788 71.6297 21.9267 71.5948 21.7974C71.5584 21.6622 71.4104 21.5448 71.2467 21.5212C71.09 21.4986 70.8895 21.3764 70.8011 21.2498C70.6746 21.0684 70.5623 21.0363 70.2717 21.0986C70.0687 21.1422 69.8362 21.2317 69.755 21.2974C69.6737 21.3631 69.4368 21.5026 69.2283 21.6071C69.019 21.7122 68.834 21.9048 68.8152 22.0374C68.7964 22.1694 68.533 22.5 68.23 22.772C67.7115 23.2374 66.4824 24.0902 66.3301 24.0902C66.292 24.0902 66.0219 23.8124 65.73 23.4729C65.0013 22.6256 64.2845 22.2826 63.2244 22.2743C62.5171 22.2686 62.3286 22.3133 61.9221 22.5832C61.6568 22.7592 61.306 23.149 61.1285 23.465C60.8585 23.9458 60.8197 24.1255 60.8722 24.6543C60.9872 25.8157 61.6397 26.6016 62.9818 27.1954C63.6184 27.477 63.6636 27.5225 63.6058 27.8228C63.4532 28.6172 63.2815 29.0966 62.8052 30.0578C61.8822 31.9206 60.1512 33.3486 58.6663 33.4723C58.0739 33.5217 58.0324 33.5053 57.569 33.0398C57.3042 32.7738 57.0876 32.455 57.0876 32.3314C57.0876 32.2078 57.3223 31.6126 57.6094 31.0086C59.145 27.7771 58.0863 24.4892 55.1565 23.3906C54.0771 22.986 52.5152 23.0061 51.3529 23.4396C50.1943 23.8719 49.4076 24.4093 48.514 25.379C46.9309 27.097 46.154 29.1237 46.1686 31.4979C46.1728 32.1769 46.2284 32.9529 46.2922 33.2223C46.3952 33.6569 46.3836 33.7186 46.1897 33.7696C45.6935 33.8999 39.5895 33.3566 39.3929 33.1645C39.3483 33.1209 39.2283 32.0005 39.1265 30.6748C39.0246 29.3491 38.8876 27.7882 38.8222 27.2061C38.6137 25.3495 38.4581 23.8126 38.4214 23.2456C38.4017 22.9427 38.3564 22.6474 38.3207 22.5892C38.2849 22.5311 38.1996 21.8793 38.1311 21.141C38.0627 20.4026 37.9281 19.2958 37.8319 18.6815C37.7358 18.0671 37.5252 16.6914 37.3639 15.6243C36.5429 10.1949 36.3464 8.9766 36.0649 7.56997C35.5857 5.17483 35.4045 4.67969 34.8414 4.22501C34.1544 3.67037 33.7066 3.59618 33.0135 3.92223ZM111.065 7.32858C109.818 7.73459 108.282 8.81187 107.034 10.1568C106.182 11.0752 105.233 12.3858 104.65 13.4491C104.544 13.6431 104.286 14.0432 104.078 14.3381C103.75 14.8027 103.098 16.0909 102.089 18.2699C101.68 19.1537 100.562 22.2143 100.113 23.6787C98.9621 27.4377 97.9144 31.3354 97.581 33.0997C97.0414 35.9554 96.1011 41.9715 95.9384 43.6093C95.1391 51.6533 95.4755 59.6278 96.7511 62.8672C96.8857 63.2091 96.9958 63.5845 96.9958 63.7014C96.9958 63.8183 97.099 64.0078 97.2252 64.1226C97.3513 64.2374 97.445 64.3646 97.4332 64.4054C97.4213 64.4462 97.5901 64.8127 97.8081 65.2199C98.5239 66.5567 100.241 68.0007 101.553 68.3684C101.961 68.4828 103.158 68.4386 103.717 68.2883C104.883 67.9748 106.964 66.1136 107.757 64.6752C107.959 64.309 108.218 63.8505 108.333 63.6565C108.902 62.697 110.162 59.6868 110.686 58.0327C111.221 56.3462 112.322 52.0961 112.565 50.7813C112.619 50.4903 112.871 49.2998 113.126 48.1357C113.38 46.9716 113.754 45.0933 113.957 43.9615C114.16 42.8298 114.388 41.5864 114.465 41.1984C114.796 39.5233 114.536 38.1067 113.759 37.3457C113.018 36.621 112.346 36.4054 109.794 36.0743C108.45 35.8999 107.989 35.9851 107.405 36.5154C106.981 36.9 106.944 36.9829 106.946 37.5376C106.948 38.0018 107.029 38.2702 107.297 38.6998C107.489 39.0069 107.704 39.2583 107.774 39.2583C107.844 39.2583 108.035 39.3641 108.199 39.4934C108.575 39.7908 108.61 39.7887 109.02 39.4425C109.425 39.0999 109.703 39.0553 110.63 39.1843C111.622 39.3223 111.783 39.4288 111.691 39.886C111.65 40.0905 111.567 40.6016 111.505 41.022C111.444 41.4423 111.341 42.0508 111.278 42.3742C111.214 42.6975 111.049 43.5706 110.911 44.3143C110.773 45.058 110.608 45.7668 110.544 45.8893C110.48 46.0119 110.411 46.2765 110.389 46.4772C110.368 46.678 110.269 47.2656 110.169 47.7829C110.07 48.3003 109.96 48.8823 109.925 49.0763C109.89 49.2704 109.651 50.3286 109.394 51.428C109.136 52.5274 108.869 53.6914 108.8 54.0148C108.626 54.8281 107.543 58.1523 107.278 58.684C107.158 58.9239 107.061 59.2056 107.061 59.31C107.061 59.4921 106.018 61.8232 105.774 62.1867C105.709 62.2837 105.511 62.6251 105.334 62.9451C105.157 63.2653 104.809 63.7415 104.561 64.0034C104.313 64.2653 104.023 64.5868 103.917 64.7179C103.517 65.214 103.003 65.479 102.44 65.479C101.929 65.479 101.847 65.4334 101.215 64.7982C99.6907 63.267 98.8667 60.4848 98.5088 55.6609C98.3529 53.5609 98.3579 50.1851 98.5194 48.3709C98.5885 47.5948 98.6928 46.3249 98.7509 45.5489C98.8092 44.7729 98.9408 43.5559 99.0433 42.8445C99.1457 42.1331 99.2749 41.1014 99.3304 40.5517C99.3858 40.002 99.461 39.4729 99.4974 39.3759C99.5338 39.2788 99.6411 38.6174 99.7358 37.9061C99.9079 36.6136 100.734 32.5105 100.979 31.733C101.051 31.5067 101.233 30.7395 101.384 30.0281C101.536 29.3167 101.791 28.2849 101.95 27.7353C102.409 26.1562 103.059 24.0852 103.296 23.4435C103.416 23.1202 103.553 22.7498 103.601 22.6204C103.648 22.4911 103.867 21.9179 104.087 21.3467C104.306 20.7755 104.486 20.2413 104.486 20.1597C104.486 20.078 104.916 19.1697 105.441 18.141C107.33 14.4404 108.485 12.7724 110.257 11.1846C111.25 10.2949 111.602 10.1082 112.442 10.0239C113.053 9.96264 113.13 9.9864 113.876 10.4695C114.946 11.1616 115.253 11.7487 115.253 13.1007C115.253 13.6274 115.176 14.316 115.081 14.6309C114.927 15.1467 114.929 15.2241 115.1 15.4139C115.204 15.5296 115.383 15.6243 115.498 15.6243C115.613 15.6243 115.736 15.6714 115.772 15.7289C115.807 15.7864 115.978 15.8692 116.152 15.9131C116.325 15.9568 116.622 16.1034 116.811 16.2387L117.155 16.4846L117.369 16.2014C117.868 15.5415 117.997 14.9318 118 13.2139C118.004 11.3752 117.859 10.7484 117.187 9.68644C116.438 8.50345 115.454 7.73447 114.116 7.28519C113.151 6.96149 112.15 6.97571 111.065 7.32858ZM83.654 26.2567C84.3029 26.5097 84.6627 26.7152 84.6887 26.8479C84.7415 27.117 83.7892 29.8327 83.5164 30.1909C83.399 30.3452 83.3029 30.5585 83.3029 30.6649C83.3029 30.7714 83.0616 31.266 82.7667 31.7638C82.0007 33.057 81.1278 33.6954 79.9598 33.8165C79.058 33.9099 78.1947 33.5409 77.759 32.8753C77.4433 32.3934 77.4367 32.349 77.514 31.2627C77.6349 29.5649 78.1694 28.3115 79.2587 27.1713C79.9164 26.483 80.2156 26.2616 80.7282 26.0843C81.686 25.7529 82.4822 25.7999 83.654 26.2567ZM54.5849 26.3083C54.9951 26.6143 55.5018 27.4371 55.3909 27.6172C55.3509 27.6821 55.1692 27.7353 54.9871 27.7353C54.3383 27.7353 54.0779 28.102 52.6401 31.0404C51.7092 32.9424 51.6937 32.9574 50.3014 33.3199C49.5153 33.5246 49.402 33.4964 49.235 33.0551C48.763 31.8078 48.9744 30.1106 49.7976 28.5382C50.7594 26.7012 51.8721 25.9306 53.4595 26.002C54.0352 26.0278 54.309 26.1024 54.5849 26.3083ZM36.878 35.8941C36.9862 36.0419 36.8933 39.0747 36.7154 41.1984C36.4943 43.8371 35.8117 47.2585 35.0029 49.7818C34.5607 51.1611 33.3713 53.8562 32.4836 55.4902C30.6413 58.8813 27.49 62.2087 24.9793 63.4142C23.2873 64.2264 21.5558 64.4095 20.0297 63.9374C18.937 63.5993 18.6434 63.4353 17.7879 62.6854C16.2544 61.3408 15.2029 59.1963 14.8051 56.6016C14.5851 55.1671 14.7367 52.2259 15.1116 50.6571C15.6313 48.4822 16.809 45.8757 18.0837 44.0791C19.0565 42.708 21.0261 40.6428 22.2347 39.7265C25.9095 36.9403 30.5495 35.5296 35.4365 35.7129C36.2306 35.7427 36.8215 35.817 36.878 35.8941Z" fill="#2C187E"/>
</svg>
